<svg xmlns="http://www.w3.org/2000/svg" xmlns:xlink="http://www.w3.org/1999/xlink" viewBox="0 0 788.98 280.79"><defs><style>.cls-1{fill:#570085;}.cls-2{fill:url(#Dégradé_sans_nom_59);}.cls-3{fill:url(#Dégradé_sans_nom_59-2);}.cls-4{fill:url(#Dégradé_sans_nom_36);}</style><linearGradient id="Dégradé_sans_nom_59" x1="639.09" y1="280.79" x2="639.09" gradientUnits="userSpaceOnUse"><stop offset="0" stop-color="#ffbf00"/><stop offset="0.71" stop-color="#ffc002"/><stop offset="1" stop-color="#ffc408"/></linearGradient><linearGradient id="Dégradé_sans_nom_59-2" x1="657.3" y1="82.96" x2="657.3" y2="49.24" xlink:href="#Dégradé_sans_nom_59"/><linearGradient id="Dégradé_sans_nom_36" x1="151.94" y1="228.92" x2="151.94" y2="165.71" gradientUnits="userSpaceOnUse"><stop offset="0" stop-color="#ff4030"/><stop offset="0.07" stop-color="#ff6024"/><stop offset="0.16" stop-color="#ff7d19"/><stop offset="0.26" stop-color="#ff9510"/><stop offset="0.37" stop-color="#ffa809"/><stop offset="0.5" stop-color="#ffb504"/><stop offset="0.66" stop-color="#ffbd01"/><stop offset="1" stop-color="#ffbf00"/></linearGradient></defs><g id="Calque_2" data-name="Calque 2"><g id="Calque_20" data-name="Calque 20"><path d="M660.83,264a6.93,6.93,0,0,0,2.37-.42,7.34,7.34,0,0,0,2.08-1.14l.65,1a9.09,9.09,0,0,1-2.47,1.24,8.84,8.84,0,0,1-2.75.44,8,8,0,0,1-4-1,6.89,6.89,0,0,1-2.71-2.67,7.61,7.61,0,0,1-1-3.85,8.22,8.22,0,0,1,.64-3.24,8.59,8.59,0,0,1,4.51-4.57,8.1,8.1,0,0,1,3.35-.69,7.72,7.72,0,0,1,2.56.41,6.19,6.19,0,0,1,2.07,1.16,6.77,6.77,0,0,1,1.52,1.86,9.45,9.45,0,0,1,.94,2.47l-14.31,4.61-.24-1.08,13.59-4.29-.48.44a6.86,6.86,0,0,0-2-3.15,5.21,5.21,0,0,0-3.64-1.3,7.11,7.11,0,0,0-6.22,3.59,7.13,7.13,0,0,0-1,3.62,6.77,6.77,0,0,0,.8,3.25,6.19,6.19,0,0,0,5.65,3.29Zm6.74-23.74-4.49,5.34h-1l4.05-5.34Z"/></g><g id="Calque_19" data-name="Calque 19"><path d="M676.11,265a7.55,7.55,0,0,1-3.91-1.24,7.23,7.23,0,0,1-2.53-3,7.71,7.71,0,0,1-.66-4,9.22,9.22,0,0,1,1-3.22,8,8,0,0,1,2-2.51,8.75,8.75,0,0,1,2.77-1.58,8,8,0,0,1,3.26-.43,7.28,7.28,0,0,1,4.29,1.59,7.18,7.18,0,0,1,2.49,3.47l-.36.52,2.44-20.09h1.37l-3.81,30.31h-1.28l.56-4.69.2.68A9,9,0,0,1,680.6,264,7.82,7.82,0,0,1,676.11,265Zm.28-1.12a7,7,0,0,0,3.47-.64,7.54,7.54,0,0,0,2.72-2.15,7,7,0,0,0,1.43-3.22l.16-1.65a6.41,6.41,0,0,0-.9-3,6.65,6.65,0,0,0-2.17-2.18,6.21,6.21,0,0,0-3.07-.92,7.21,7.21,0,0,0-3.58.66,7.07,7.07,0,0,0-4.07,5.91,6.41,6.41,0,0,0,.54,3.49,6.27,6.27,0,0,0,2.16,2.59A6.47,6.47,0,0,0,676.39,263.89Z"/></g><g id="Calque_18" data-name="Calque 18"><path d="M692.43,249.46h1.32l-1.88,15.39h-1.33Zm.24-4.94a1,1,0,0,1,.4-.82,1.35,1.35,0,0,1,.88-.34,1,1,0,0,1,.74.32.94.94,0,0,1,.26.76,1.05,1.05,0,0,1-.4.83,1.37,1.37,0,0,1-.88.34,1.14,1.14,0,0,1-.74-.36A.9.9,0,0,1,692.67,244.52Z"/></g><g id="Calque_17" data-name="Calque 17"><path d="M702.17,242.68h1.36l-.88,7h5l-.16,1.12h-5l-1.68,14h-1.33l1.73-14h-3.45l.12-1.12h3.45Z"/></g><g id="Calque_16" data-name="Calque 16"><path d="M711.11,249.46h1.32l-1.88,15.39h-1.33Zm.24-4.94a1,1,0,0,1,.4-.82,1.37,1.37,0,0,1,.88-.34,1,1,0,0,1,.74.32.94.94,0,0,1,.26.76,1.05,1.05,0,0,1-.4.83,1.35,1.35,0,0,1-.88.34,1.16,1.16,0,0,1-.74-.36A.9.9,0,0,1,711.35,244.52Z"/></g><g id="Calque_15" data-name="Calque 15"><path d="M723.66,265.13a8.15,8.15,0,0,1-3-.54,7.34,7.34,0,0,1-2.43-1.54,7.33,7.33,0,0,1-2.24-5.38,9.61,9.61,0,0,1,.5-3,8.61,8.61,0,0,1,1.54-2.77,7.68,7.68,0,0,1,2.67-2,8.9,8.9,0,0,1,3.83-.77,8,8,0,0,1,3.93.95,7.18,7.18,0,0,1,2.74,2.62,7.29,7.29,0,0,1,1,3.89,9.47,9.47,0,0,1-.32,2.35,9.73,9.73,0,0,1-1,2.34,7.55,7.55,0,0,1-1.66,2,7.46,7.46,0,0,1-2.42,1.38A9.66,9.66,0,0,1,723.66,265.13Zm0-1.12a6.89,6.89,0,0,0,4.07-1.12,7,7,0,0,0,2.34-2.81,8.24,8.24,0,0,0,.76-3.45,6.63,6.63,0,0,0-.48-2.56,6,6,0,0,0-1.36-2,6.41,6.41,0,0,0-4.53-1.82,7,7,0,0,0-4,1.1,6.69,6.69,0,0,0-2.37,2.81,8.51,8.51,0,0,0-.76,3.46,6.42,6.42,0,0,0,.84,3.27,6.17,6.17,0,0,0,2.31,2.31A6.38,6.38,0,0,0,723.7,264Z"/></g><g id="Calque_14" data-name="Calque 14"><path d="M738.77,249.46l-.24,4.09-.28-.37a8.08,8.08,0,0,1,7.1-4.09,4.67,4.67,0,0,1,3.53,1.27,3.82,3.82,0,0,1,.92,3.31l-1.37,11.18h-1.32l1.32-10.9a3.15,3.15,0,0,0-.74-2.67,3.6,3.6,0,0,0-2.78-1,6.7,6.7,0,0,0-3.17.78,7,7,0,0,0-2.45,2.14,6.57,6.57,0,0,0-1.16,3.09l-1,8.58h-1.32l1.88-15.39Z"/></g><g id="Calque_13" data-name="Calque 13"><path d="M777.33,242.68l-7.65,9.25-.92-.27a4.55,4.55,0,0,1,1.53-.48,8.09,8.09,0,0,1,1.63,0,6.36,6.36,0,0,1,3,.75,5.17,5.17,0,0,1,2.08,2,6.21,6.21,0,0,1,.76,3.16,9.44,9.44,0,0,1-.36,2.4,8.37,8.37,0,0,1-1.2,2.58,6.7,6.7,0,0,1-2.35,2.07,8.19,8.19,0,0,1-3.77.91,10.43,10.43,0,0,1-2.13-.23,6.54,6.54,0,0,1-2-.79,6.13,6.13,0,0,1-1.75-1.64l.68-.74a4.93,4.93,0,0,0,2.4,1.83,7.75,7.75,0,0,0,2.77.44,7,7,0,0,0,3.11-.69,5.61,5.61,0,0,0,2-1.72,7.16,7.16,0,0,0,1.09-2.24,8,8,0,0,0,.34-2.21,4.65,4.65,0,0,0-1.41-3.57,5.89,5.89,0,0,0-3.86-1.47,7.2,7.2,0,0,0-1.78.16,6.87,6.87,0,0,0-1.52.46l-.13-.14,7.48-9,.37.27h-9.59l.14-1.09Z"/></g><g id="Calque_11" data-name="Calque 11"><path class="cls-1" d="M686.62,174.54q3.09-2.55,6.73.27,3.36,2.43,2,5.25a2.91,2.91,0,0,1-.94,1.35A278.89,278.89,0,0,1,671,199.17l-2.15,1.48-2.36,1.62-2.22,1.48c-1.08.72-1.91,1.23-2.49,1.55s-1.37.76-2.36,1.34a17.26,17.26,0,0,1-2.55,1.28c-.72.27-1.53.61-2.43,1a22,22,0,0,1-2.69,1c-.9.27-1.75.49-2.55.67q-6.6,1.35-12.12-3.63a15.92,15.92,0,0,1-5.65-11.84,28.48,28.48,0,0,1,.34-4.38,26,26,0,0,1,1.21-4.71c.58-1.66,1.12-3.12,1.61-4.37s1.24-2.83,2.22-4.71,1.73-3.28,2.22-4.18,1.35-2.33,2.56-4.3,1.95-3.23,2.22-3.77a4.36,4.36,0,0,1,5.18-1.35,11.61,11.61,0,0,1,5.59,4.44c1.61,2.25,2,4.13,1.08,5.66a153.44,153.44,0,0,0-10.1,20.72c-.27.81-.63,1.8-1.07,3q7-1.2,20.59-8.48T686.62,174.54Z"/></g><g id="Calque_10" data-name="Calque 10"><path class="cls-1" d="M667,147q-1.08,3.06-5.92.54-4.57-2.18-5.79-5.46a3.35,3.35,0,0,1-.13-2.07,114,114,0,0,1,12-23.06q1.88-2,5-1.09a11.52,11.52,0,0,1,5.59,3.61c1.61,1.82,2,3.35,1.21,4.58A115.28,115.28,0,0,0,667,147Z"/></g><g id="Calque_12" data-name="Calque 12"><path class="cls-1" d="M715.15,172.79q2,18.72-9.42,33.11a25,25,0,0,1-7.81,6.93,14.66,14.66,0,0,1-9.22,1.69,14.82,14.82,0,0,1-9-5.12A17.85,17.85,0,0,1,675,198.23a23.2,23.2,0,0,1,2.55-11.91,57.29,57.29,0,0,1,7.61-11.24,69.77,69.77,0,0,1,9.82-9.55,54.4,54.4,0,0,1,9.83-6.33c1.43-.72,3.16-.4,5.18.94a13.18,13.18,0,0,1,4.58,5.18c1,2.11,1,3.8-.07,5.05A8.2,8.2,0,0,1,715.15,172.79Zm-15.61,15.35a36,36,0,0,0,3-9.69,51.82,51.82,0,0,0-6.19,6.46,53.83,53.83,0,0,0-5.92,9.28,43,43,0,0,0-1.89,4.71,2.62,2.62,0,0,0-.2.68c0,.27-.09.63-.13,1.07a5.52,5.52,0,0,1-.2,1.08l2.28-1.62a16.31,16.31,0,0,0,2.83-2.42A37.42,37.42,0,0,0,699.54,188.14Z"/></g><g id="Calque_2-2" data-name="Calque 2"><path class="cls-1" d="M773.86,196.08A157.27,157.27,0,0,1,784.33,176a5.22,5.22,0,0,0,.07-5.31,11.28,11.28,0,0,0-4.31-4.85,6.81,6.81,0,0,0-5.45-1.14A124.5,124.5,0,0,0,741,181.14a1.08,1.08,0,0,1,.14-.41,1.27,1.27,0,0,1,.27-.4c.8-1.52.4-3.41-1.22-5.65a11.58,11.58,0,0,0-5.58-4.44,4.14,4.14,0,0,0-5.05,1.34Q718.65,191.1,715,205.23a4.42,4.42,0,0,0,.33,3,15.92,15.92,0,0,0,2,3.5,15.66,15.66,0,0,0,3,3,5.83,5.83,0,0,0,3.23,1.34,3.17,3.17,0,0,0,2.63-1.14,123.22,123.22,0,0,1,34.59-28.67A45.12,45.12,0,0,0,755.93,200a12.8,12.8,0,0,0,9.14,13.58c1.45.35,7.13-13.84,7.73-15.16C773.16,197.63,773.51,196.85,773.86,196.08Z"/></g><g id="Calque_3" data-name="Calque 3"><path class="cls-2" d="M641.33,118.62q-9,23.3-17,50.2a388.75,388.75,0,0,0-12,54,333.22,333.22,0,0,0-3.59,53.7q.19,6.19-6.61,3.39a20.14,20.14,0,0,1-10.19-8.59,11.08,11.08,0,0,1-1.41-4,357.25,357.25,0,0,1,12.21-96.6q12.79-48.21,36.2-102,.84-2.11,1.75-4.26c2.19-5.19,4.49-10.1,6.84-14.74q7.82-17.4,22-46.8,2.61-5.4,10-.8,6.81,4.2,8,10a5.2,5.2,0,0,1-.4,3.6C680.47,29.72,647.33,103.08,641.33,118.62Z"/></g><g id="Calque_9" data-name="Calque 9"><path class="cls-3" d="M779.74,66.12a22.92,22.92,0,0,1,6.5,5.4q3.09,3.6,2.7,7a4.45,4.45,0,0,1-3.31,4.2,6.8,6.8,0,0,1-5.69-1,87.56,87.56,0,0,0-25.5-8.9,276.26,276.26,0,0,0-32.1-3.7q-29-1.8-58.6-1.4c-.54,0-90.14,6.73-122.41,13q-5.39,1-11.8-6.4-5.6-7-3.2-10a2.79,2.79,0,0,1,2.2-1.2,741.94,741.94,0,0,1,119-13.4q5.49-.27,11.28-.38,6.44-.12,12.52,0,16.8-.21,28.3.1t26.81,1.8A167.31,167.31,0,0,1,755,56.42,124.34,124.34,0,0,1,779.74,66.12Z"/></g><g id="Calque_28" data-name="Calque 28"><path class="cls-1" d="M121.64,225.24a28.06,28.06,0,0,1-8,3.35,31.53,31.53,0,0,1-16.49.28,28.75,28.75,0,0,1-8.61-3.46,20.71,20.71,0,0,1-7.1-7.16q-2.85-4.63-2.85-11.91a30.2,30.2,0,0,1,1.67-9.72,29.32,29.32,0,0,1,5-9.06,24.67,24.67,0,0,1,8.49-6.65A27.43,27.43,0,0,1,106,178.39a31.29,31.29,0,0,1,12.58,2.24,27,27,0,0,1,8.33,5.48l-8.83,9.5a17.48,17.48,0,0,0-4.25-2.91,14.78,14.78,0,0,0-6.82-1.45,11.56,11.56,0,0,0-6.15,1.79,13.47,13.47,0,0,0-4.7,4.92,14.43,14.43,0,0,0-1.79,7.27,11.67,11.67,0,0,0,1.57,6,11.52,11.52,0,0,0,4.47,4.31,14,14,0,0,0,6.93,1.62,15,15,0,0,0,4.2-.56,11.34,11.34,0,0,0,3.52-1.68Z"/></g><g id="Calque_8" data-name="Calque 8"><path class="cls-4" d="M168.57,180.87c.86,6.86-4.32,9.47-4.32,9.47C164,173.05,153,165.71,153,165.71c2.3,6.63-3.74,9-14.38,22.5s-.58,27.46-.58,27.46c-5.18-.47-8.92-8.28-8.92-8.28,2.15,16.8,15.87,20.65,22.66,21.53a10.37,10.37,0,0,1-6.3-8.7s1.7,3.55,4.06,3.77c0,0-4.58-6.36.26-12.51s7.6-7.22,6.55-10.24c0,0,5,3.35,5.11,11.21a4.12,4.12,0,0,0,2-4.31s6.77,11.93-.7,19.7C185.75,211.17,168.57,180.87,168.57,180.87Z"/></g><g id="Calque_27" data-name="Calque 27"><path class="cls-1" d="M204.61,179.51l.33,9.73-.56-1.79a23.73,23.73,0,0,1,8.33-7.44,24.61,24.61,0,0,1,12-2.85q6.93,0,11,4.08a12.68,12.68,0,0,1,3.53,10.57l-4.48,36.56H219.14l3.8-30.75a7.77,7.77,0,0,0-1.17-5.19q-1.41-2-5.2-2a10.24,10.24,0,0,0-6.54,2.35,17.43,17.43,0,0,0-4.87,6.37,31.05,31.05,0,0,0-2.57,9.28l-2.46,19.9H184.48l5.92-48.86Z"/></g><g id="Calque_26" data-name="Calque 26"><path class="cls-1" d="M256.93,158h15.65L270,179.29h11.85l-1.45,12.18H268.56l-4.47,36.9H248.43l4.47-36.9h-7.6l1.46-12.18h7.6Z"/></g><g id="Calque_25" data-name="Calque 25"><path class="cls-1" d="M309.26,216.41a12.08,12.08,0,0,0,4.3-.78,37.67,37.67,0,0,0,4.19-1.91l5.48,12.08a39.46,39.46,0,0,1-7.77,2.79,32.45,32.45,0,0,1-7.88,1,33.32,33.32,0,0,1-14-2.74,20.58,20.58,0,0,1-9.34-8.38q-3.36-5.65-3.35-14.15a28.28,28.28,0,0,1,6.65-17.83,25.24,25.24,0,0,1,8.94-6.65,31.47,31.47,0,0,1,13.36-2.57,34.21,34.21,0,0,1,8.45,1.06,20.76,20.76,0,0,1,7.71,3.8,22.48,22.48,0,0,1,6,7.66,39.11,39.11,0,0,1,3.52,12.74l-39.36,9.73-2.46-8.72,30.64-7.94-5.48,1.68a10,10,0,0,0-3.52-5.82,9.74,9.74,0,0,0-6.09-2,12.94,12.94,0,0,0-7.38,1.9,11.06,11.06,0,0,0-4.08,4.92,15.8,15.8,0,0,0-1.29,6.26q0,5.6,2.07,8.61a10.57,10.57,0,0,0,5,4.14A15.89,15.89,0,0,0,309.26,216.41Z"/></g><g id="Calque_24" data-name="Calque 24"><path class="cls-1" d="M357.11,179.51l.22,9.5-.22-1.56a25.84,25.84,0,0,1,8.22-7.66,21.49,21.49,0,0,1,10.9-2.74,17.78,17.78,0,0,1,9.56,2.29q3.63,2.29,4.19,7.44l-.22.11a31.93,31.93,0,0,1,8.33-7,18.6,18.6,0,0,1,9.56-2.8q7.26,0,11.07,4.08t3.13,10.57l-4.48,36.67H401.83l3.69-30.19a15.3,15.3,0,0,0-.39-5.31c-.41-1.38-1.69-2.14-3.86-2.29a9.69,9.69,0,0,0-6.7,2.63,19.31,19.31,0,0,0-4.7,6.71,30.58,30.58,0,0,0-2.35,8.44l-2.46,20H369.41l3.69-30.19a12.72,12.72,0,0,0-.56-5.31q-.78-2.07-4-2.29a9.38,9.38,0,0,0-6.54,2.63,19.17,19.17,0,0,0-4.58,6.65,30.78,30.78,0,0,0-2.29,8.27l-2.46,20.24H337l5.93-48.86Z"/></g><g id="Calque_23" data-name="Calque 23"><path class="cls-1" d="M455.5,229.71a24.08,24.08,0,0,1-9.06-1.9,15.55,15.55,0,0,1-6.93-4.92l3.58-4-3.69,33H423.86l9.28-73.46h13.42l.44,9.51-3.35-3.36a69.28,69.28,0,0,1,10.45-5.42,25.44,25.44,0,0,1,9.56-2.07,23.75,23.75,0,0,1,11.3,2.74,21.44,21.44,0,0,1,8.21,7.66,21.69,21.69,0,0,1,3.08,11.74,31.73,31.73,0,0,1-3.69,15A28.79,28.79,0,0,1,472,225.46,30.68,30.68,0,0,1,455.5,229.71Zm-.45-13.08a15.5,15.5,0,0,0,8.33-2.12,14.1,14.1,0,0,0,5.2-5.59,15.69,15.69,0,0,0,1.79-7.27,11.52,11.52,0,0,0-1.79-6.43,12.53,12.53,0,0,0-10.51-5.76,13.1,13.1,0,0,0-4.75.84,15,15,0,0,0-4.14,2.46,22.26,22.26,0,0,0-3.74,4.08l-1.46,12a13.47,13.47,0,0,0,1.74,3.25,11.7,11.7,0,0,0,2.4,2.46,10.39,10.39,0,0,0,3.08,1.56A12.26,12.26,0,0,0,455.05,216.63Z"/></g><g id="Calque_22" data-name="Calque 22"><path class="cls-1" d="M499.33,158.25H515l-10.73,70.12H488.6Z"/></g><g id="Calque_21" data-name="Calque 21"><path class="cls-1" d="M532.76,229.49a17.07,17.07,0,0,1-9.39-2.68,21.38,21.38,0,0,1-7.55-8.17,26.4,26.4,0,0,1-3-13,28.47,28.47,0,0,1,2-10.56,30,30,0,0,1,5.7-9.17,27.78,27.78,0,0,1,8.72-6.48,25.28,25.28,0,0,1,11.07-2.41,24,24,0,0,1,8,1.12,15,15,0,0,1,5,2.85,20.39,20.39,0,0,1,3.25,3.75l-1,2.34,2.46-7.6h14.53l-5.92,48.86H551l1.23-10.62.9,3.35a6.1,6.1,0,0,0-1.57,1.29,28.82,28.82,0,0,1-3.85,3,27.36,27.36,0,0,1-6.27,3A25.13,25.13,0,0,1,532.76,229.49ZM541.59,217a11.37,11.37,0,0,0,4.31-.84,14.62,14.62,0,0,0,4-2.46,16.12,16.12,0,0,0,3.35-4.08l1.45-12a9.22,9.22,0,0,0-2.12-4.19,10.57,10.57,0,0,0-3.91-2.68,16,16,0,0,0-11.85.39,13.11,13.11,0,0,0-4.42,3.47,13.82,13.82,0,0,0-2.52,4.52,15,15,0,0,0-.78,4.64,14.66,14.66,0,0,0,1.57,7,11.09,11.09,0,0,0,4.41,4.59A13,13,0,0,0,541.59,217Z"/></g><g id="Calque_31" data-name="Calque 31"><path d="M8.5,204.63a6.81,6.81,0,0,0-2.45.32,7.84,7.84,0,0,0-2.34,1.19,6.3,6.3,0,0,0-1.77,2,5.18,5.18,0,0,0-.68,2.63,4.83,4.83,0,0,0,.85,2.81,5.79,5.79,0,0,0,2.31,1.94,7.41,7.41,0,0,0,3.2.69,8.57,8.57,0,0,0,2.7-.42,7.91,7.91,0,0,0,2.26-1.16,5.42,5.42,0,0,0,1.5-1.58l.64.85a7.26,7.26,0,0,1-3,2.43,9.35,9.35,0,0,1-4.3.9,8.45,8.45,0,0,1-3.95-.88,6.48,6.48,0,0,1-2.61-2.38A5.85,5.85,0,0,1,0,210.68a6.07,6.07,0,0,1,.77-2.91,7.19,7.19,0,0,1,2-2.26,9.46,9.46,0,0,1,2.73-1.46,8.33,8.33,0,0,1,3-.45ZM17.44,217H16.05L5.54,200.07a8.72,8.72,0,0,1-.54-1A5.48,5.48,0,0,1,4.64,198a3.44,3.44,0,0,1-.08-1.05,5.4,5.4,0,0,1,.74-2.87,5.28,5.28,0,0,1,2.11-1.91,7.17,7.17,0,0,1,3.27-.69,6.7,6.7,0,0,1,2.7.52,9.52,9.52,0,0,1,2,1.18l-.68.81a10.22,10.22,0,0,0-1.94-1.1,5,5,0,0,0-2.07-.43A4.8,4.8,0,0,0,7,193.78a4.45,4.45,0,0,0-1.24,3.16,3.49,3.49,0,0,0,.12.87,5.44,5.44,0,0,0,.32.88,5.28,5.28,0,0,0,.41.73Zm1.4-13.4H20l-5.1,10.1-.71-.72Z"/></g><g id="Calque_30" data-name="Calque 30"><path d="M39.51,217.13a7.52,7.52,0,0,1-3.9-1.25,7.07,7.07,0,0,1-2.53-3,7.53,7.53,0,0,1-.66-4,9.06,9.06,0,0,1,1-3.23,8.41,8.41,0,0,1,2-2.51,8.59,8.59,0,0,1,2.76-1.58,8.1,8.1,0,0,1,3.27-.42,7.34,7.34,0,0,1,4.29,1.58,7.18,7.18,0,0,1,2.48,3.47l-.36.52,2.45-20.08h1.36L47.81,217H46.53l.56-4.69.2.68A8.87,8.87,0,0,1,44,216.1,7.87,7.87,0,0,1,39.51,217.13ZM39.8,216a6.82,6.82,0,0,0,3.46-.64A7.44,7.44,0,0,0,46,213.22,7,7,0,0,0,47.41,210l.16-1.64a6.16,6.16,0,0,0-.9-3,6.75,6.75,0,0,0-2.16-2.19,6.32,6.32,0,0,0-3.07-.92,7.27,7.27,0,0,0-3.59.66,7.1,7.1,0,0,0-4.07,5.92,6.61,6.61,0,0,0,.54,3.49A6.31,6.31,0,0,0,39.8,216Z"/></g><g id="Calque_29" data-name="Calque 29"><path d="M60.4,216.09a7,7,0,0,0,2.37-.43,7.48,7.48,0,0,0,2.08-1.14l.64,1A9.06,9.06,0,0,1,63,216.77a8.89,8.89,0,0,1-2.75.44,8,8,0,0,1-4-1,7,7,0,0,1-2.7-2.66,7.64,7.64,0,0,1-1-3.85,8.27,8.27,0,0,1,.65-3.25,8.4,8.4,0,0,1,1.8-2.7,8.7,8.7,0,0,1,2.71-1.87,8.21,8.21,0,0,1,3.34-.68,7.78,7.78,0,0,1,2.57.4,6.51,6.51,0,0,1,2.06,1.16,6.7,6.7,0,0,1,1.53,1.87,9.38,9.38,0,0,1,.94,2.46l-14.31,4.61-.24-1.08,13.59-4.29-.48.44a6.86,6.86,0,0,0-2-3.14,5.24,5.24,0,0,0-3.65-1.31,6.89,6.89,0,0,0-3.6,1,7.06,7.06,0,0,0-2.61,2.62,7.14,7.14,0,0,0-1,3.63,6.66,6.66,0,0,0,.8,3.25A6.24,6.24,0,0,0,57,215.18,6.34,6.34,0,0,0,60.4,216.09Z"/></g><g id="Calque_38" data-name="Calque 38"><path class="cls-1" d="M276.65,151a28.35,28.35,0,0,1-8,3.36,35.44,35.44,0,0,1-9.11,1.23,35.86,35.86,0,0,1-7.38-.95,28.79,28.79,0,0,1-8.61-3.47,20.77,20.77,0,0,1-7.1-7.15q-2.85-4.65-2.85-11.91a30.21,30.21,0,0,1,1.67-9.73,29.16,29.16,0,0,1,5-9,24.69,24.69,0,0,1,8.49-6.66A27.43,27.43,0,0,1,261,104.2a31.3,31.3,0,0,1,12.58,2.23,27,27,0,0,1,8.33,5.48l-8.83,9.5a17.77,17.77,0,0,0-4.25-2.9,14.66,14.66,0,0,0-6.82-1.46,11.56,11.56,0,0,0-6.15,1.79,13.63,13.63,0,0,0-4.7,4.92,14.43,14.43,0,0,0-1.79,7.27,11.7,11.7,0,0,0,1.57,6,11.5,11.5,0,0,0,4.47,4.3,14,14,0,0,0,6.93,1.62,15.39,15.39,0,0,0,4.2-.55,11.8,11.8,0,0,0,3.52-1.68Z"/></g><g id="Calque_37" data-name="Calque 37"><path class="cls-1" d="M316.46,142.21a12.08,12.08,0,0,0,4.3-.78,37.56,37.56,0,0,0,4.19-1.9l5.48,12.07a38.86,38.86,0,0,1-7.77,2.8,33,33,0,0,1-7.88,1,33.48,33.48,0,0,1-14-2.74,20.66,20.66,0,0,1-9.34-8.39q-3.36-5.64-3.35-14.14a28.28,28.28,0,0,1,6.65-17.84,25.36,25.36,0,0,1,8.94-6.65A31.63,31.63,0,0,1,317,103.08a34.19,34.19,0,0,1,8.44,1.06,20.91,20.91,0,0,1,7.71,3.8,22.48,22.48,0,0,1,6,7.66,39.1,39.1,0,0,1,3.52,12.75l-39.36,9.72-2.45-8.72,30.63-7.94-5.48,1.68a9.89,9.89,0,0,0-3.52-5.81,9.74,9.74,0,0,0-6.09-2,12.86,12.86,0,0,0-7.38,1.9,11,11,0,0,0-4.08,4.92,15.77,15.77,0,0,0-1.29,6.26c0,3.73.69,6.59,2.07,8.61a10.6,10.6,0,0,0,5,4.13A15.89,15.89,0,0,0,316.46,142.21Zm14-57.8L313.88,99.5h-9.5l8.72-15.09Z"/></g><g id="Calque_36" data-name="Calque 36"><path class="cls-1" d="M359,66h15.66l-10.74,88.22H348.27Z"/></g><g id="Calque_35" data-name="Calque 35"><path class="cls-1" d="M406.75,142.21a12.14,12.14,0,0,0,4.31-.78,39.27,39.27,0,0,0,4.19-1.9l5.48,12.07a38.86,38.86,0,0,1-7.77,2.8,33,33,0,0,1-7.89,1,33.54,33.54,0,0,1-14-2.74,20.58,20.58,0,0,1-9.33-8.39q-3.36-5.64-3.36-14.14A28.28,28.28,0,0,1,385,112.3a25.49,25.49,0,0,1,8.95-6.65,31.59,31.59,0,0,1,13.36-2.57,34.13,34.13,0,0,1,8.44,1.06,20.88,20.88,0,0,1,7.72,3.8,22.46,22.46,0,0,1,6,7.66A39.34,39.34,0,0,1,433,128.35l-39.36,9.72-2.46-8.72,30.64-7.94-5.48,1.68a9.9,9.9,0,0,0-3.53-5.81,9.74,9.74,0,0,0-6.09-2,12.86,12.86,0,0,0-7.38,1.9,11.09,11.09,0,0,0-4.08,4.92,15.77,15.77,0,0,0-1.29,6.26c0,3.73.69,6.59,2.07,8.61a10.65,10.65,0,0,0,5,4.13A15.93,15.93,0,0,0,406.75,142.21Zm14-57.8L404.18,99.5h-9.5l8.72-15.09Z"/></g><g id="Calque_34" data-name="Calque 34"><path class="cls-1" d="M467.43,155.52a21.79,21.79,0,0,1-10.12-2.07,20.63,20.63,0,0,1-6.65-5.42l1.67-3.36-1.23,9.51H435.45L446.3,66h15.54L456,113.7l.56-5a25.32,25.32,0,0,1,7.21-4.14,26.76,26.76,0,0,1,9.79-1.68,24.31,24.31,0,0,1,11.12,2.63,20.18,20.18,0,0,1,8.39,8.11q3.18,5.47,3.18,14a27.06,27.06,0,0,1-3.69,13.7,28.22,28.22,0,0,1-25.15,14.26Zm-1.9-13.2a15,15,0,0,0,6.65-1.34,14.6,14.6,0,0,0,4.58-3.41,13.32,13.32,0,0,0,2.69-4.47,13.73,13.73,0,0,0,.84-4.53,15.91,15.91,0,0,0-1.57-7.38,10.5,10.5,0,0,0-4.36-4.53,13.52,13.52,0,0,0-6.49-1.51,13.72,13.72,0,0,0-7.71,2.13A15.22,15.22,0,0,0,455,123l-1.46,11.29a16.69,16.69,0,0,0,1.9,3.3,11.86,11.86,0,0,0,2.58,2.57,10.64,10.64,0,0,0,3.29,1.62A14.24,14.24,0,0,0,465.53,142.32Z"/></g><g id="Calque_33" data-name="Calque 33"><path class="cls-1" d="M520.56,105.31l-.44,10.85a27.63,27.63,0,0,1,6.43-7.32,29.73,29.73,0,0,1,7.6-4.48,18.72,18.72,0,0,1,6.54-1.51L538,118.51a15,15,0,0,0-9.62,1.79,19.62,19.62,0,0,0-6.82,6.48,20.08,20.08,0,0,0-3.13,8.28l-2.35,19.12H500.55l5.93-48.87Z"/></g><g id="Calque_32" data-name="Calque 32"><path class="cls-1" d="M560.17,155.29a17,17,0,0,1-9.4-2.68,21.33,21.33,0,0,1-7.54-8.16,26.42,26.42,0,0,1-3-13,28.34,28.34,0,0,1,2-10.57,30.14,30.14,0,0,1,5.7-9.17,27.78,27.78,0,0,1,8.72-6.48,25.36,25.36,0,0,1,11.07-2.41,23.93,23.93,0,0,1,8,1.12,15,15,0,0,1,5,2.85,20.27,20.27,0,0,1,3.24,3.75l-1,2.35,2.46-7.61H600L594,154.18H578.39l1.23-10.63.9,3.36c-.16,0-.68.43-1.57,1.28a28.31,28.31,0,0,1-3.86,3,27.5,27.5,0,0,1-6.26,3A24.72,24.72,0,0,1,560.17,155.29ZM569,142.77a11.32,11.32,0,0,0,4.3-.84,14.62,14.62,0,0,0,4-2.46,15.94,15.94,0,0,0,3.36-4.08l1.45-12a9.21,9.21,0,0,0-2.12-4.2,10.65,10.65,0,0,0-3.92-2.68,14.24,14.24,0,0,0-5.36-1,14.44,14.44,0,0,0-6.49,1.34,13.33,13.33,0,0,0-4.42,3.47,14.12,14.12,0,0,0-2.51,4.53,15,15,0,0,0-.78,4.64,14.83,14.83,0,0,0,1.56,7,11.15,11.15,0,0,0,4.42,4.58A13,13,0,0,0,569,142.77Z"/></g><g id="Calque_45" data-name="Calque 45"><path d="M104.8,122.42a19,19,0,0,0-3.07-1.28,12.45,12.45,0,0,0-3.82-.68,8,8,0,0,0-3.29.58,5.86,5.86,0,0,0-2,1.44,5.34,5.34,0,0,0-1,1.77,5,5,0,0,0-.3,1.54,3.64,3.64,0,0,0,.84,2.54,8.22,8.22,0,0,0,2.33,1.87c1,.53,2,1.05,3,1.56a29.16,29.16,0,0,1,3.33,1.73,8.56,8.56,0,0,1,2.63,2.4,6,6,0,0,1,1,3.65,8.63,8.63,0,0,1-.5,2.75,8.44,8.44,0,0,1-1.58,2.72,8.34,8.34,0,0,1-2.83,2.07,10.14,10.14,0,0,1-4.23.8,13,13,0,0,1-3.87-.54,13.22,13.22,0,0,1-5.11-2.91l.76-1.08a10.91,10.91,0,0,0,2.09,1.56A12.57,12.57,0,0,0,92,146.15a11.23,11.23,0,0,0,3.33.49,7.81,7.81,0,0,0,4.25-1.07,7.17,7.17,0,0,0,3.41-6,4.82,4.82,0,0,0-.91-3.09,7.87,7.87,0,0,0-2.42-2.1,31.61,31.61,0,0,0-3.13-1.59c-.83-.37-1.64-.77-2.44-1.2a15,15,0,0,1-2.19-1.42,5.84,5.84,0,0,1-1.54-1.83,4.68,4.68,0,0,1-.52-2.44A6,6,0,0,1,91,122.36a7,7,0,0,1,2.93-2.3,9.68,9.68,0,0,1,4-.81,16.66,16.66,0,0,1,2.64.32,18.32,18.32,0,0,1,2.65.77,17.93,17.93,0,0,1,2.32,1Z"/></g><g id="Calque_44" data-name="Calque 44"><path d="M114.74,147.8a7.3,7.3,0,0,1-3.71-1,7.16,7.16,0,0,1-2.62-2.65,7.54,7.54,0,0,1-1-3.81,9.21,9.21,0,0,1,.46-2.76,8.89,8.89,0,0,1,1.46-2.81,7.86,7.86,0,0,1,2.61-2.17,8.28,8.28,0,0,1,3.89-.84,8.13,8.13,0,0,1,3.28.64,7.08,7.08,0,0,1,2.45,1.77,6.71,6.71,0,0,1,1.44,2.56l-.28.52.84-5.09h1.13l-1.85,15.4h-1.32l.56-4.69.16.64a8.32,8.32,0,0,1-1.24,1.62,9.85,9.85,0,0,1-1.73,1.39,8.26,8.26,0,0,1-2.1.92A9.23,9.23,0,0,1,114.74,147.8Zm.56-1.08a7.25,7.25,0,0,0,3.25-.75,6.86,6.86,0,0,0,3.85-5.19l.2-1.92a6.1,6.1,0,0,0-1-3,6.72,6.72,0,0,0-5.57-2.93,6.73,6.73,0,0,0-5.64,2.69,7.73,7.73,0,0,0-1.22,2.41,8.06,8.06,0,0,0-.36,2.24,6.57,6.57,0,0,0,.82,3.25,6,6,0,0,0,2.31,2.34A6.52,6.52,0,0,0,115.3,146.72Z"/></g><g id="Calque_43" data-name="Calque 43"><path d="M132.66,117.29H134l-3.73,30.31h-1.33Z"/></g><g id="Calque_42" data-name="Calque 42"><path d="M143.41,147.88a8.15,8.15,0,0,1-3-.54,7.3,7.3,0,0,1-4.67-6.92,9.71,9.71,0,0,1,.5-3,8.75,8.75,0,0,1,1.54-2.76,7.7,7.7,0,0,1,2.67-2,9.05,9.05,0,0,1,3.83-.76,8.15,8.15,0,0,1,3.93.94A7.24,7.24,0,0,1,152,139.3a9.33,9.33,0,0,1-.32,2.34,9.8,9.8,0,0,1-1,2.35,7.35,7.35,0,0,1-1.66,2,7.61,7.61,0,0,1-2.43,1.39A9.55,9.55,0,0,1,143.41,147.88Zm0-1.12a6.62,6.62,0,0,0,6.41-3.93,8.27,8.27,0,0,0,.76-3.45,6.68,6.68,0,0,0-.48-2.57,6,6,0,0,0-1.36-2,6.28,6.28,0,0,0-2.05-1.34,6.42,6.42,0,0,0-2.48-.49,7,7,0,0,0-4.05,1.11,6.67,6.67,0,0,0-2.37,2.8,8.59,8.59,0,0,0-.76,3.47,6.47,6.47,0,0,0,.84,3.27,6.22,6.22,0,0,0,2.31,2.3A6.29,6.29,0,0,0,143.45,146.76Z"/></g><g id="Calque_41" data-name="Calque 41"><path d="M158.52,132.2l-.24,4.09-.28-.36a8,8,0,0,1,2.87-3,7.93,7.93,0,0,1,4.23-1.14,4.6,4.6,0,0,1,3.52,1.27,3.78,3.78,0,0,1,.93,3.3l-1.37,11.19h-1.32l1.32-10.91a3.14,3.14,0,0,0-.74-2.66,3.62,3.62,0,0,0-2.79-1,6.7,6.7,0,0,0-3.16.79,6.83,6.83,0,0,0-2.45,2.14,6.57,6.57,0,0,0-1.16,3.09l-1,8.58h-1.33l1.89-15.4Z"/></g><g id="Calque_40" data-name="Calque 40"><path d="M191.51,147.76a7.6,7.6,0,0,1-3.9-1.24,7.16,7.16,0,0,1-2.53-3,7.63,7.63,0,0,1-.66-4,9.06,9.06,0,0,1,1-3.23,8.24,8.24,0,0,1,2-2.5,8.44,8.44,0,0,1,2.76-1.59,8.1,8.1,0,0,1,3.27-.42,7.28,7.28,0,0,1,4.29,1.59,7.11,7.11,0,0,1,2.48,3.46l-.36.52,2.45-20.08h1.36l-3.81,30.31h-1.28l.56-4.69.2.68a9,9,0,0,1-3.29,3.15A8,8,0,0,1,191.51,147.76Zm.29-1.12a6.93,6.93,0,0,0,3.46-.65,7.44,7.44,0,0,0,2.73-2.14,7,7,0,0,0,1.42-3.23l.16-1.64a6.16,6.16,0,0,0-.9-3,6.71,6.71,0,0,0-2.16-2.18,6.33,6.33,0,0,0-3.07-.93,7.21,7.21,0,0,0-6.36,3,7.24,7.24,0,0,0-1.3,3.61,6.6,6.6,0,0,0,.54,3.49,6.28,6.28,0,0,0,2.17,2.58A6.38,6.38,0,0,0,191.8,146.64Z"/></g><g id="Calque_39" data-name="Calque 39"><path d="M213.12,146.72a7,7,0,0,0,2.37-.42,7.77,7.77,0,0,0,2.08-1.15l.64,1a9.06,9.06,0,0,1-2.46,1.25,8.89,8.89,0,0,1-2.75.44,8.05,8.05,0,0,1-4-1,7.07,7.07,0,0,1-2.7-2.67,7.64,7.64,0,0,1-1-3.85,8.27,8.27,0,0,1,.65-3.25,8.4,8.4,0,0,1,1.8-2.7,8.81,8.81,0,0,1,2.71-1.87,8.21,8.21,0,0,1,3.34-.68,8.05,8.05,0,0,1,2.57.4,6.45,6.45,0,0,1,2.06,1.17,6.66,6.66,0,0,1,1.53,1.86,9.45,9.45,0,0,1,.94,2.47l-14.31,4.61-.24-1.09L220,137l-.48.45a7,7,0,0,0-2-3.15,5.24,5.24,0,0,0-3.65-1.31,7.17,7.17,0,0,0-6.21,3.59,7.14,7.14,0,0,0-1,3.63,6.66,6.66,0,0,0,.8,3.25,6.2,6.2,0,0,0,5.65,3.29Z"/></g></g></svg>