<svg width="582" height="224" viewBox="0 0 582 224" fill="none" xmlns="http://www.w3.org/2000/svg">
<path d="M16.9 206.5L13.9139 209.161L13.9285 209.178L13.9432 209.194L16.9 206.5ZM4.6 155.2V151.2H0.600001V155.2H4.6ZM35.8 155.2H39.8V151.2H35.8V155.2ZM65.5 185.2L62.5007 182.554L62.4952 182.56L62.4897 182.566L65.5 185.2ZM64 145.9L60.5523 147.928L60.5656 147.951L60.5792 147.973L64 145.9ZM41.8 121.6L39.1535 124.599L39.1637 124.608L39.1739 124.617L41.8 121.6ZM13.3 89.2L9.79665 91.1304L9.80511 91.1458L9.8137 91.161L13.3 89.2ZM17.8 17.8L20.7242 20.5293L20.7392 20.5132L20.7539 20.4971L17.8 17.8ZM90.1 17.8L87.0816 20.4247L87.112 20.4597L87.1432 20.4939L90.1 17.8ZM102.4 65.5V69.5H106.4V65.5H102.4ZM71.2 65.5H67.2V69.5H71.2V65.5ZM67 39.1L63.9123 41.6428L63.9503 41.689L63.9897 41.734L67 39.1ZM44.2 75.4L40.7792 77.4732L40.8019 77.5106L40.8254 77.5475L44.2 75.4ZM66.7 99.4L64.0739 102.417L64.0753 102.418L66.7 99.4ZM95.2 132.1L91.6666 133.975L91.6666 133.975L95.2 132.1ZM90.1 206.2L87.1779 203.468L87.1619 203.486L87.1461 203.503L90.1 206.2ZM53.2 216C37.9528 216 27.0797 211.734 19.8568 203.806L13.9432 209.194C23.1203 219.266 36.4472 224 53.2 224V216ZM19.8861 203.839C12.5511 195.609 8.6 183.592 8.6 167.2H0.600001C0.600001 184.808 4.84895 198.991 13.9139 209.161L19.8861 203.839ZM8.6 167.2V155.2H0.600001V167.2H8.6ZM4.6 159.2H35.8V151.2H4.6V159.2ZM31.8 155.2V169.6H39.8V155.2H31.8ZM31.8 169.6C31.8 176.861 33.307 183.053 37.0095 187.47C40.8254 192.022 46.3799 194 52.9 194V186C48.0201 186 45.0246 184.578 43.1405 182.33C41.143 179.947 39.8 175.939 39.8 169.6H31.8ZM52.9 194C59.2657 194 64.7281 192.157 68.5103 187.834L62.4897 182.566C60.6719 184.643 57.7343 186 52.9 186V194ZM68.4994 187.846C72.4444 183.375 74 176.797 74 169H66C66 176.003 64.5556 180.225 62.5007 182.554L68.4994 187.846ZM74 169C74 159.574 71.8505 151.136 67.4208 143.827L60.5792 147.973C64.1495 153.864 66 160.826 66 169H74ZM67.4477 143.872C63.1186 136.512 55.3318 128.075 44.4261 118.583L39.1739 124.617C49.8682 133.925 56.8814 141.688 60.5523 147.928L67.4477 143.872ZM44.4465 118.601C30.9945 106.731 21.8703 96.2772 16.7863 87.2389L9.8137 91.161C15.5297 101.323 25.4055 112.469 39.1535 124.599L44.4465 118.601ZM16.8034 87.2696C11.7581 78.1133 9.2 67.7875 9.2 56.2H1.2C1.2 69.0125 4.04195 80.6867 9.79665 91.1304L16.8034 87.2696ZM9.2 56.2C9.2 40.2537 13.2269 28.5621 20.7242 20.5293L14.8758 15.0707C5.57306 25.0379 1.2 38.9463 1.2 56.2H9.2ZM20.7539 20.4971C28.194 12.3484 39.1846 7.99999 54.4 7.99999V-1.14441e-05C37.6154 -1.14441e-05 24.206 4.85158 14.8461 15.1029L20.7539 20.4971ZM54.4 7.99999C69.408 7.99999 80.0522 12.341 87.0816 20.4247L93.1184 15.1753C84.1478 4.85902 70.992 -1.14441e-05 54.4 -1.14441e-05V7.99999ZM87.1432 20.4939C94.4462 28.5094 98.4 40.4009 98.4 56.8H106.4C106.4 39.1991 102.154 25.0906 93.0568 15.106L87.1432 20.4939ZM98.4 56.8V65.5H106.4V56.8H98.4ZM102.4 61.5H71.2V69.5H102.4V61.5ZM75.2 65.5V54.7H67.2V65.5H75.2ZM75.2 54.7C75.2 47.15 73.7631 40.7549 70.0103 36.466L63.9897 41.734C65.8369 43.8451 67.2 47.85 67.2 54.7H75.2ZM70.0877 36.5572C66.3576 32.0277 60.9987 30 54.7 30V38C59.2013 38 62.0424 39.3723 63.9123 41.6428L70.0877 36.5572ZM54.7 30C48.3523 30 42.9402 31.9714 39.2333 36.487C35.6505 40.8516 34.2 46.9542 34.2 54.1H42.2C42.2 47.8458 43.4995 43.8984 45.4167 41.563C47.2098 39.3786 50.0477 38 54.7 38V30ZM34.2 54.1C34.2 62.4428 36.4065 70.2582 40.7792 77.4732L47.6208 73.3268C43.9935 67.3418 42.2 60.9572 42.2 54.1H34.2ZM40.8254 77.5475C45.3367 84.6367 53.1819 92.9371 64.0739 102.417L69.3261 96.3828C58.6181 87.0629 51.4634 79.3633 47.5747 73.2525L40.8254 77.5475ZM64.0753 102.418C77.7134 114.278 86.7981 124.8 91.6666 133.975L98.7334 130.225C93.2019 119.8 83.2866 108.522 69.3247 96.3816L64.0753 102.418ZM91.6666 133.975C96.5071 143.097 99 153.93 99 166.6H107C107 152.87 104.293 140.703 98.7334 130.225L91.6666 133.975ZM99 166.6C99 183.162 94.8653 195.245 87.1779 203.468L93.0221 208.932C102.535 198.755 107 184.438 107 166.6H99ZM87.1461 203.503C79.7152 211.642 68.6331 216 53.2 216V224C70.1669 224 83.6848 219.158 93.0539 208.897L87.1461 203.503ZM248.521 155.8L252.165 157.45L252.171 157.437L252.176 157.425L248.521 155.8ZM274.321 120.1L277.216 122.861L277.227 122.849L277.238 122.837L274.321 120.1ZM299.521 86.8L295.975 84.9497L295.959 84.9803L295.943 85.0111L299.521 86.8ZM302.221 39.4L299.064 41.8558L299.14 41.9536L299.222 42.0465L302.221 39.4ZM272.521 77.2V81.2H276.521V77.2H272.521ZM241.321 77.2H237.321V81.2H241.321V77.2ZM253.921 17.8L256.845 20.5293L256.86 20.5132L256.875 20.4971L253.921 17.8ZM327.121 17.8L324.167 20.4971L324.182 20.5132L324.197 20.5293L327.121 17.8ZM330.421 94.3L326.855 92.4878L326.843 92.5112L326.832 92.5347L330.421 94.3ZM298.921 136.3L296.02 133.546L296.015 133.551L296.01 133.557L298.921 136.3ZM279.121 161.8L282.654 163.677L282.665 163.654L282.677 163.632L279.121 161.8ZM274.021 187H270.021V191H274.021V187ZM336.721 187H340.721V183H336.721V187ZM336.721 217V221H340.721V217H336.721ZM241.321 217H237.321V221H241.321V217ZM245.321 194.2C245.321 179.611 247.657 167.405 252.165 157.45L244.877 154.15C239.785 165.395 237.321 178.789 237.321 194.2H245.321ZM252.176 157.425C256.719 147.203 264.985 135.683 277.216 122.861L271.427 117.339C258.857 130.517 249.923 142.797 244.866 154.175L252.176 157.425ZM277.238 122.837C289.539 109.729 298.244 98.2987 303.099 88.5888L295.943 85.0111C291.598 93.7013 283.503 104.471 271.404 117.363L277.238 122.837ZM303.067 88.6503C308.154 78.9013 310.721 68.669 310.721 58H302.721C302.721 67.331 300.488 76.2987 295.975 84.9497L303.067 88.6503ZM310.721 58C310.721 48.8473 309.256 41.3266 305.22 36.7535L299.222 42.0465C301.187 44.2734 302.721 49.1527 302.721 58H310.721ZM305.379 36.9442C301.648 32.1477 296.144 30 289.621 30V38C294.299 38 297.194 39.4523 299.064 41.8558L305.379 36.9442ZM289.621 30C283.082 30 277.522 32.0158 273.712 36.6275C270.023 41.0928 268.521 47.3495 268.521 54.7H276.521C276.521 48.2505 277.869 44.1572 279.88 41.7225C281.77 39.4342 284.76 38 289.621 38V30ZM268.521 54.7V77.2H276.521V54.7H268.521ZM272.521 73.2H241.321V81.2H272.521V73.2ZM245.321 77.2V56.8H237.321V77.2H245.321ZM245.321 56.8C245.321 40.4236 249.363 28.5459 256.845 20.5293L250.997 15.0707C241.679 25.0541 237.321 39.1764 237.321 56.8H245.321ZM256.875 20.4971C264.315 12.3484 275.306 7.99999 290.521 7.99999V-1.14441e-05C273.737 -1.14441e-05 260.327 4.85158 250.967 15.1029L256.875 20.4971ZM290.521 7.99999C305.737 7.99999 316.727 12.3484 324.167 20.4971L330.075 15.1029C320.715 4.85158 307.306 -1.14441e-05 290.521 -1.14441e-05V7.99999ZM324.197 20.5293C331.679 28.5459 335.721 40.4236 335.721 56.8H343.721C343.721 39.1764 339.363 25.0541 330.045 15.0707L324.197 20.5293ZM335.721 56.8C335.721 68.927 332.79 80.8095 326.855 92.4878L333.987 96.1122C340.452 83.3905 343.721 70.273 343.721 56.8H335.721ZM326.832 92.5347C321.084 104.221 310.888 117.885 296.02 133.546L301.822 139.054C316.954 123.115 327.758 108.779 334.011 96.0653L326.832 92.5347ZM296.01 133.557C286.144 144.027 279.229 152.856 275.565 159.968L282.677 163.632C285.813 157.544 292.098 149.373 301.832 139.043L296.01 133.557ZM275.589 159.923C271.875 166.914 270.021 174.46 270.021 182.5H278.021C278.021 175.74 279.567 169.486 282.654 163.677L275.589 159.923ZM270.021 182.5V187H278.021V182.5H270.021ZM274.021 191H336.721V183H274.021V191ZM332.721 187V217H340.721V187H332.721ZM336.721 213H241.321V221H336.721V213ZM245.321 217V194.2H237.321V217H245.321ZM492.238 206.5L489.281 209.194L489.298 209.212L489.314 209.229L492.238 206.5ZM492.238 17.5L489.314 14.7707L489.298 14.7883L489.281 14.806L492.238 17.5ZM564.538 17.5L561.582 20.194L561.598 20.2117L561.614 20.2293L564.538 17.5ZM577.138 77.8V81.8H581.138V77.8H577.138ZM545.938 77.8H541.938V81.8H545.938V77.8ZM545.938 138.7V134.7H541.938V138.7H545.938ZM577.138 138.7H581.138V134.7H577.138V138.7ZM564.538 206.5L561.614 203.771L561.598 203.788L561.582 203.806L564.538 206.5ZM528.538 216C513.514 216 502.606 211.745 495.163 203.771L489.314 209.229C498.671 219.255 511.962 224 528.538 224V216ZM495.195 203.806C487.87 195.767 483.938 184.154 483.938 168.4H475.938C475.938 185.446 480.206 199.233 489.281 209.194L495.195 203.806ZM483.938 168.4V55.6H475.938V168.4H483.938ZM483.938 55.6C483.938 39.8455 487.87 28.2335 495.195 20.194L489.281 14.806C480.206 24.7665 475.938 38.5544 475.938 55.6H483.938ZM495.163 20.2293C502.606 12.2546 513.514 7.99999 528.538 7.99999V-1.14441e-05C511.962 -1.14441e-05 498.671 4.74542 489.314 14.7707L495.163 20.2293ZM528.538 7.99999C543.568 7.99999 554.349 12.2562 561.582 20.194L567.495 14.806C558.327 4.7438 545.109 -1.14441e-05 528.538 -1.14441e-05V7.99999ZM561.614 20.2293C569.119 28.2704 573.138 39.869 573.138 55.6H581.138C581.138 38.531 576.757 24.7296 567.463 14.7707L561.614 20.2293ZM573.138 55.6V77.8H581.138V55.6H573.138ZM577.138 73.8H545.938V81.8H577.138V73.8ZM549.938 77.8V53.5H541.938V77.8H549.938ZM549.938 53.5C549.938 46.5314 548.478 40.5592 544.867 36.2912C541.147 31.8952 535.746 30 529.438 30V38C534.13 38 536.979 39.3548 538.76 41.4588C540.648 43.6907 541.938 47.4686 541.938 53.5H549.938ZM529.438 30C523.13 30 517.729 31.8952 514.01 36.2912C510.398 40.5592 508.938 46.5314 508.938 53.5H516.938C516.938 47.4686 518.228 43.6907 520.117 41.4588C521.897 39.3548 524.746 38 529.438 38V30ZM508.938 53.5V170.8H516.938V53.5H508.938ZM508.938 170.8C508.938 177.681 510.404 183.588 514.03 187.807C517.755 192.142 523.15 194 529.438 194V186C524.726 186 521.871 184.658 520.097 182.593C518.223 180.412 516.938 176.719 516.938 170.8H508.938ZM529.438 194C535.726 194 541.121 192.142 544.847 187.807C548.473 183.588 549.938 177.681 549.938 170.8H541.938C541.938 176.719 540.654 180.412 538.78 182.593C537.005 184.658 534.15 186 529.438 186V194ZM549.938 170.8V138.7H541.938V170.8H549.938ZM545.938 142.7H577.138V134.7H545.938V142.7ZM573.138 138.7V168.4H581.138V138.7H573.138ZM573.138 168.4C573.138 184.131 569.119 195.73 561.614 203.771L567.463 209.229C576.757 199.27 581.138 185.469 581.138 168.4H573.138ZM561.582 203.806C554.349 211.744 543.568 216 528.538 216V224C545.109 224 558.327 219.256 567.495 209.194L561.582 203.806Z" fill="url(#paint0_linear_86_350)"/>
<defs>
<linearGradient id="paint0_linear_86_350" x1="-325" y1="-162.5" x2="493.5" y2="744" gradientUnits="userSpaceOnUse">
<stop stop-color="#4B0082"/>
<stop offset="1" stop-color="#F4C430"/>
</linearGradient>
</defs>
</svg>
